<?xml version="1.0" standalone="no"?>
<svg xmlns="http://www.w3.org/2000/svg" xmlns:xlink="http://www.w3.org/1999/xlink" version="1.1" id="Layer_1" x="0px" y="0px" viewBox="0 0 864 723.2" enable-background="new 0 0 864 723.2" xml:space="preserve" class="injected-svg" data-src="https://d9i3cp4r5rckd.cloudfront.net/svg/5e7c6fed2a7fca0663ab8a83_1.svg">
<title>terms and agreement</title>
<g>
	<g id="Layer_1_1_">
		<path fill="#FCE3E9" d="M525.5,541.5c0,0-230.7,1.6-244.3,30.4c-13.6,28.8-259.5,8.3-251.3,55.6s322.7,22.7,349,44.3    s-49.1,37.4,90.7,46.5c139.8,9.1,365.7,11.7,369.8-51.3s-112.8-67.2-154.2-67.2C596.5,599.9,648.4,549.1,525.5,541.5z"></path>
		<ellipse fill="#F2F1EF" cx="301.6" cy="589.1" rx="59.6" ry="7.6"></ellipse>
		<path fill="#FCE3E9" d="M632.1,479.7c0,0,242.4,28.3,228-189.1C845.6,73.2,637.9-58,430.6,25.3C311,73.3,303,158.6,106.9,221.8    S3.5,520.1,231.5,514.5S582.2,409.5,632.1,479.7z"></path>
		
			<linearGradient id="SVGID_1_-5" gradientUnits="userSpaceOnUse" x1="517.3898" y1="505.4799" x2="816.9708" y2="505.4799" gradientTransform="matrix(1 0 0 1 -95.12 -179.9767)">
			<stop offset="3.000000e-02" style="stop-color:#EEBE2D"></stop>
			<stop offset="1" style="stop-color:#E48A20"></stop>
		</linearGradient>
		<path fill="url(#SVGID_1_-5)" d="M715.3,324.1l3.1,2.8C717.5,325.9,716.5,324.9,715.3,324.1z"></path>
		<path fill="#5864FF" d="M91.2,415.7c0,0,0.7,0.6,1.9,1.7c1.2,1.1,3,2.8,5.2,5c2.2,2.2,4.7,5,7.5,8.2c2.8,3.3,5.7,7.1,8.9,11.4    s6.3,9,9.4,14.2c3.1,5.2,6.2,10.7,9.1,16.6c2.9,5.9,5.7,12.1,8.4,18.5c2.5,6.4,5,13,7.1,19.7c1.1,3.3,2.1,6.7,3,10.1    c0.5,1.7,1,3.4,1.4,5c0.4,1.6,0.9,3.4,1.2,5c0.4,1.7,0.8,3.3,1.2,5c0.4,1.7,0.7,3.3,1.1,5c0.7,3.3,1.4,6.6,2,9.8    c0.5,3.3,1.2,6.4,1.6,9.6c0.4,3.2,0.9,6.2,1.4,9.2c0.7,6,1.5,11.6,1.9,16.9c0.2,2.6,0.5,5.1,0.7,7.5c0.2,2.4,0.3,4.7,0.5,6.8    c0.3,4.3,0.5,8,0.6,11.1c0.1,3.1,0.2,5.5,0.2,7.2c0,0.6,0,1.3,0.1,1.9c0.4,0.3,0.8,0.4,1.2,0.5l0.9,0.2l0.9-0.2    c0.4-0.1,0.9-0.2,1.2-0.5c0.1-0.6,0.1-1.3,0.1-1.9c0-1.7,0-4.1,0.1-7.2c0.1-3.1,0-6.9-0.1-11.3c-0.1-2.2-0.1-4.5-0.2-6.9    c-0.2-2.4-0.3-5-0.5-7.7c-0.3-5.3-1-11.1-1.6-17.2c-0.8-6.1-1.7-12.5-3-19.1c-0.6-3.3-1.3-6.6-2-10c-0.4-1.7-0.8-3.4-1.2-5.1    c-0.4-1.7-0.9-3.4-1.3-5.1c-0.4-1.7-0.9-3.4-1.4-5.1s-1-3.4-1.5-5.1c-1-3.4-2.1-6.8-3.3-10.2c-2.3-6.8-5-13.4-7.8-19.9    c-2.9-6.4-5.9-12.7-9.2-18.5c-3.3-5.9-6.7-11.4-10.1-16.5c-3.4-5.1-7-9.7-10.3-13.9c-5.4-6.7-11.4-12.9-17.9-18.6    C96.5,419.5,93.9,417.5,91.2,415.7z"></path>
		<path fill="#5864FF" d="M117.4,445.3c0,0,2.2-5.4-7.1-18.9c-9.3-13.5-14.4-35-4.8-33.6C115.1,394.3,122.7,433.4,117.4,445.3z"></path>
		<path fill="#5864FF" d="M136.1,474.6c0.2-9.9-0.6-19.8-2.3-29.6c-3.1-17.9-5.8-26.5,3.3-22C146.2,427.5,143.5,464.8,136.1,474.6z"></path>
		<path fill="#5864FF" d="M105.2,429.6c0,0-23-29.9-39-22.5C50.2,414.6,99.4,422.8,105.2,429.6z"></path>
		<path fill="#5864FF" d="M124.3,451.7c0,0-38.6-32-49.5-18.8C63.9,446.2,120.9,445.8,124.3,451.7z"></path>
		<path fill="#5864FF" d="M138,471.4c0,0-39.8-23.8-45.1-9.6C87,477.6,132.1,463.6,138,471.4z"></path>
		<path fill="#5864FF" d="M151,508c0,0-0.8-47.5,3.7-55C159.2,445.6,167.7,466.2,151,508z"></path>
		<path fill="#5864FF" d="M143.3,488.4c0,0-32.8-18.7-39.6-16C96.9,475.1,108,493.5,143.3,488.4z"></path>
		<path fill="#5864FF" d="M165.5,560.9c0,0-29.6-26.3-36.6-25.2C121.8,536.7,130.2,557.5,165.5,560.9z"></path>
		<path fill="#5864FF" d="M167.1,593.9c0,0-17.7-31.5-24.6-29.8C135.6,565.8,135.7,591.6,167.1,593.9z"></path>
		<path fill="#5864FF" d="M168.4,603.5c0,0,12-57.1,20-63.1C196.3,534.4,202.1,564.3,168.4,603.5z"></path>
		<path fill="#5864FF" d="M161.8,550.2c0,0,2.5-54.3,10.5-60.5C180.2,483.6,192.8,511.5,161.8,550.2z"></path>
		<path fill="#5864FF" d="M155.1,527.8c0,0-23.6-31.9-34.8-20C110.2,518.4,155.1,527.8,155.1,527.8z"></path>
		<path fill="#5864FF" d="M775.2,294.6c-4.7-32.7-12.9-65.5-7.1-103.2c-30.2,35.8-49.6,79.4-56.1,125.8c-4,29-3.2,60-17.7,85.5    c-10.2,18.1-26.9,31.3-40.4,47.1c-27.3,32-40.6,75.3-36.8,117.1c1.2,12.4,11.3,22,23.8,22.6l0,0c29.9,10,66.2-8.6,75.5-38.7    c4.5-14.4,3.3-30,7-44.7c5.6-22.4,21.7-40.4,33.3-60.3C784.1,398.8,784.5,359.2,775.2,294.6z"></path>
		<path fill="#5864FF" d="M751.4,231.8l-1,4.2c-0.6,2.7-1.5,6.7-2.3,11.9c-0.9,6.2-1.4,12.4-1.5,18.7c0,8.1,0.4,16.2,1.2,24.3    c0.8,8.9,1.5,18.7,1.5,29c0,10.9-0.7,21.7-2.1,32.5c-1.5,11.6-4.2,23-8.2,34c-4.2,11.3-9.4,22.2-15.6,32.5    c-12.2,20.8-26.8,39.9-38,59c-5.5,9.1-10.3,18.6-14.4,28.4c-3.6,8.8-6.7,17.8-9.1,27c-1,4.3-2,8.4-2.7,12.4    c-0.8,3.9-1.3,7.7-1.8,11.3c-0.5,3.6-0.8,6.9-1.1,10s-0.4,6-0.6,8.5c-0.3,5.2-0.3,9.2-0.3,12c0,2.7,0,4.3,0,4.3l-4.6,0.1    c0,0,0-1.5,0-4.3c0-2.8-0.1-7,0.2-12.2c0.1-2.6,0.2-5.6,0.5-8.7c0.3-3.2,0.4-6.6,1-10.3c0.5-3.6,0.9-7.6,1.7-11.6    c0.6-4.1,1.6-8.3,2.6-12.8c2.3-9.5,5.4-18.7,9.1-27.7c4.2-10,9.1-19.8,14.7-29.1c5.7-9.7,12.2-19.5,18.8-29.1    c6.7-9.7,13.4-19.5,19.5-29.7c6.1-10,11.2-20.6,15.4-31.6c3.9-10.6,6.7-21.7,8.2-32.9c1.6-10.6,2.5-21.2,2.7-31.9    c0.2-10.2-0.3-19.8-0.7-28.8s-0.6-17.2-0.2-24.6c0.4-6.3,1.2-12.6,2.5-18.8c1.1-5.1,2.3-9.1,3.1-11.8L751.4,231.8z"></path>
		<path fill="#728BF2" d="M636.5,569.9c-7.9-18.7-1.7-42.4,14.4-54.9c15-11.6,38.3-15.7,44.4-33.7c2-5.8,1.6-12.2,3-18.1    c3.7-16.2,19.2-26.9,34.5-33.6c15.3-6.7,32-11.2,44.4-22.3c20.5-18.3,23.6-48.5,32.9-74.3c4.9-13.7,16.9-29.1,30.8-24.7    c11.7,3.6,15.1,19,12.6,31c-2.5,12-8.9,23.2-9.1,35.5c-0.3,19.5,14.9,36,18.8,55.1c4.3,21-7.1,44.3-26.3,53.8    c-11.5,5.7-24.7,6.6-36.9,10.4c-12.2,3.8-24.7,11.9-27,24.5c-2.6,14.2,8.7,28.2,6.6,42.5c-1.5,10.5-10,18.7-19,24.3    C734.8,601.3,655.8,614.7,636.5,569.9"></path>
		<path fill="#F65164" d="M636.5,569.9c-7.9-18.7-1.7-42.4,14.4-54.9c15-11.6,38.3-15.7,44.4-33.7c2-5.8,1.6-12.2,3-18.1    c3.7-16.2,19.2-26.9,34.5-33.6c15.3-6.7,32-11.2,44.4-22.3c20.5-18.3,23.6-48.5,32.9-74.3c4.9-13.7,16.9-29.1,30.8-24.7    c11.7,3.6,15.1,19,12.6,31c-2.5,12-8.9,23.2-9.1,35.5c-0.3,19.5,14.9,36,18.8,55.1c4.3,21-7.1,44.3-26.3,53.8    c-11.5,5.7-24.7,6.6-36.9,10.4c-12.2,3.8-24.7,11.9-27,24.5c-2.6,14.2,8.7,28.2,6.6,42.5c-1.5,10.5-10,18.7-19,24.3    C734.8,601.3,655.8,614.7,636.5,569.9"></path>
		<path fill="#728BF2" d="M831.5,341.9l-0.5,0.8c-0.3,0.5-0.8,1.3-1.3,2.4c-1.5,3.1-2.8,6.3-3.7,9.6c-1.4,5.2-2.5,10.4-3.3,15.7    c-1,6.1-1.9,13.1-3.2,20.6c-1.3,8.1-3.4,16.1-6.3,23.9c-3.3,8.7-8.1,16.7-14.2,23.6c-3.2,3.7-7.1,6.9-11.3,9.4    c-4.3,2.5-8.9,4.7-13.6,6.4c-9.4,3.6-19.3,6.3-27.8,11.5c-4.2,2.6-7.9,6-10.7,10c-2.7,4.1-4.7,8.6-5.7,13.4    c-1,4.8-1.6,9.6-1.6,14.5c-0.2,5-1.1,9.9-2.7,14.7c-3.2,9.4-9.6,17-16.4,22.7c-6.8,5.7-13.9,10.2-20.2,14.5    c-6.3,4.3-11.8,8.4-15.7,12.9c-3.4,3.7-5.9,8.2-7.1,13.1c-0.7,3.1-1,6.4-0.8,9.6c0.1,1.1,0.1,2,0.2,2.6c0.1,0.6,0.1,0.9,0.1,0.9    l-4.6,0.6l-0.1-1c-0.1-0.6-0.2-1.6-0.2-2.9c-0.2-3.7,0.2-7.3,1.1-10.9c1.5-5.5,4.4-10.6,8.3-14.8c4.4-4.8,10.2-9.1,16.6-13.3    c6.4-4.2,13.5-8.5,20.1-13.9s12.6-12.4,15.7-21.1c1.6-4.4,2.5-9.1,2.7-13.8c0.1-5,0.8-10.1,1.9-15c1.2-5.1,3.3-9.9,6.3-14.2    c3.1-4.2,7-7.8,11.6-10.5c9-5.3,19-7.8,28.4-11.2c9.3-3.4,18.3-7.8,24.6-15c6.1-6.8,11-14.6,14.3-23.1c2.9-7.7,5.1-15.6,6.5-23.6    c1.4-7.5,2.4-14.4,3.5-20.5c0.9-5.3,2-10.5,3.5-15.7c1-3.3,2.2-6.5,3.8-9.6c0.5-1.1,1-1.8,1.3-2.4L831.5,341.9z"></path>
		<path fill="#F4697D" d="M831.5,341.9l-0.5,0.8c-0.3,0.5-0.8,1.3-1.3,2.4c-1.5,3.1-2.8,6.3-3.7,9.6c-1.4,5.2-2.5,10.4-3.3,15.7    c-1,6.1-1.9,13.1-3.2,20.6c-1.3,8.1-3.4,16.1-6.3,23.9c-3.3,8.7-8.1,16.7-14.2,23.6c-3.2,3.7-7.1,6.9-11.3,9.4    c-4.3,2.5-8.9,4.7-13.6,6.4c-9.4,3.6-19.3,6.3-27.8,11.5c-4.2,2.6-7.9,6-10.7,10c-2.7,4.1-4.7,8.6-5.7,13.4    c-1,4.8-1.6,9.6-1.6,14.5c-0.2,5-1.1,9.9-2.7,14.7c-3.2,9.4-9.6,17-16.4,22.7c-6.8,5.7-13.9,10.2-20.2,14.5    c-6.3,4.3-11.8,8.4-15.7,12.9c-3.4,3.7-5.9,8.2-7.1,13.1c-0.7,3.1-1,6.4-0.8,9.6c0.1,1.1,0.1,2,0.2,2.6c0.1,0.6,0.1,0.9,0.1,0.9    l-4.6,0.6l-0.1-1c-0.1-0.6-0.2-1.6-0.2-2.9c-0.2-3.7,0.2-7.3,1.1-10.9c1.5-5.5,4.4-10.6,8.3-14.8c4.4-4.8,10.2-9.1,16.6-13.3    c6.4-4.2,13.5-8.5,20.1-13.9s12.6-12.4,15.7-21.1c1.6-4.4,2.5-9.1,2.7-13.8c0.1-5,0.8-10.1,1.9-15c1.2-5.1,3.3-9.9,6.3-14.2    c3.1-4.2,7-7.8,11.6-10.5c9-5.3,19-7.8,28.4-11.2c9.3-3.4,18.3-7.8,24.6-15c6.1-6.8,11-14.6,14.3-23.1c2.9-7.7,5.1-15.6,6.5-23.6    c1.4-7.5,2.4-14.4,3.5-20.5c0.9-5.3,2-10.5,3.5-15.7c1-3.3,2.2-6.5,3.8-9.6c0.5-1.1,1-1.8,1.3-2.4L831.5,341.9z"></path>
		<path fill="#F23B55" d="M491.3,236.7h213.1c2.1,0,3.7,1.7,3.7,3.7v359c0,2.1-1.7,3.7-3.7,3.7H491.3c-2.1,0-3.7-1.7-3.7-3.7v-359    C487.6,238.4,489.2,236.7,491.3,236.7z"></path>
		<rect x="499.7" y="264" fill="#FFFFFF" width="196.4" height="309"></rect>
		<path fill="#FFFFFF" d="M631.8,252.7h-67.9c-0.9,0-1.7-0.8-1.7-1.7l0,0c0-0.9,0.8-1.7,1.7-1.7h67.9c0.9,0,1.7,0.8,1.7,1.7l0,0    C633.5,252,632.8,252.7,631.8,252.7z"></path>
		<rect x="507.1" y="280.9" fill="#EDEDED" width="101.1" height="98.5"></rect>
		<rect x="507.1" y="391.7" fill="#EDEDED" width="180.2" height="14.7"></rect>
		<rect x="507.1" y="418.2" fill="#EDEDED" width="180.2" height="14.7"></rect>
		<rect x="507.1" y="444.7" fill="#EDEDED" width="180.2" height="14.7"></rect>
		<rect x="507.1" y="498.5" fill="#EDEDED" width="180.2" height="14.7"></rect>
		<rect x="507.1" y="552.2" fill="#EDEDED" width="180.2" height="14.7"></rect>
		<rect x="507.1" y="471.2" fill="#EDEDED" width="139.8" height="14.7"></rect>
		<rect x="621.3" y="281.9" fill="#EDEDED" width="66" height="24.3"></rect>
		<rect x="621.3" y="318.4" fill="#EDEDED" width="66" height="24.3"></rect>
		<rect x="621.3" y="355" fill="#EDEDED" width="66" height="24.3"></rect>
		<path fill="#1E44C1" d="M618,178.7"></path>
		<path fill="#1E44C1" d="M618,184.7c7.7,0,7.8-12,0-12C610.2,172.7,610.3,184.7,618,184.7z"></path>
		<path fill="#F2F1EF" d="M96.5,632.1c0,4.4,46.9,8,104.7,8s104.7-3.6,104.7-8c0-4.4-46.9-7.9-104.7-7.9S96.5,627.7,96.5,632.1z"></path>
		<path fill="#F2F1EF" d="M439.7,602.7c0,5.1,68.6,9.3,153.3,9.3s153.3-4.2,153.3-9.3c0-5.1-68.6-9.3-153.3-9.3    S439.7,597.5,439.7,602.7z"></path>
		<path fill="#1E44C1" d="M151.1,367.4"></path>
		<path fill="#1E44C1" d="M151.1,373.4c7.7,0,7.8-12,0-12S143.3,373.4,151.1,373.4z"></path>
		<path fill="#1E44C1" d="M217.5,179.3"></path>
		<path fill="#1E44C1" d="M217.5,189.9c14.3,0,14.3-21.1,0-21.1C203.2,168.8,203.2,189.9,217.5,189.9z"></path>
		<path fill="#1E44C1" d="M301.6,526.4"></path>
		<path fill="#1E44C1" d="M301.6,529.5c4,0,4-6.3,0-6.3C297.6,523.2,297.6,529.5,301.6,529.5z"></path>
		
			<linearGradient id="SVGID_2_-6" gradientUnits="userSpaceOnUse" x1="534.2194" y1="574.1254" x2="534.2194" y2="877.765" gradientTransform="matrix(1 0 0 1 -95.12 -179.9767)">
			<stop offset="0" style="stop-color:#F4BA38"></stop>
			<stop offset="1" style="stop-color:#FFD349"></stop>
		</linearGradient>
		<path opacity="0.3" fill="url(#SVGID_2_-6)" enable-background="new    " d="M547.3,463.9l-16-11.8l-62.2-45.7l-31,19.2l-27.1-16    l-32.9,24.2l-47,34.5l-40.7,29.9c2.7,4.7,7.7,7.5,13.1,7.5h269.4c7.3,0,13.5-5.2,14.9-12.3L547.3,463.9z"></path>
		
			<ellipse transform="matrix(0.9836 -0.1803 0.1803 0.9836 -22.3323 30.5574)" fill="#FCE3E9" cx="156.9" cy="138.1" rx="72.2" ry="43"></ellipse>
		<path fill="#FFB570" d="M497.2,148.8l14.2-12.1l1.8,13.1c0,0-5.9,7.4-12.6,4.3L497.2,148.8z"></path>
		<polygon fill="#FFB570" points="518.6,137.4 524.6,144.7 513.3,149.7 511.5,136.7   "></polygon>
		<path fill="#1A2E35" d="M515,104.3c1.5-0.1,2.3,0,3.4,0c0.5,0,0.9,0,1.4,0.1l1.1,0.1c1,0.1,1.9,0.5,2.7,1c0.5,0.4,0.6,1,0.8,1.5    l0.5,1.6l2,6.2l4.1,12.4l8.1,24.8c5.4,16.6,10.9,33.1,16.1,49.7c10.6,33.1,20.7,66.4,30.5,99.8c9.9,33.3,19.2,66.8,28.7,100.2    c9.7,33.4,18.1,67.1,21.1,102.1c0.5,5.6-4,10.5-9.9,10.9c-4.5,0.4-8.7-1.9-10.8-5.9c-15.5-32-25.7-65.2-34.6-98.8    c-9-33.6-18.3-67-27-100.6S536,242.1,528,208.3c-4.1-16.9-7.8-33.8-11.7-50.7l-5.8-25.4l-2.9-12.7l-1.5-6.4l-0.4-1.6    c-0.2-0.5-0.2-1.1-0.1-1.6c0.4-0.9,1-1.6,1.8-2.1l0.9-0.6c0.4-0.3,0.8-0.5,1.2-0.7c0.9-0.5,1.6-1,3-1.6    C513.3,104.5,514.2,104.3,515,104.3z"></path>
		<path fill="#007CFF" d="M633.5,508.8c-0.4-1.2-1.6-1.8-2.9-1.5l-4.8,1.2l-4.8,1.2c-1.2,0.3-2,1.4-1.7,2.6l0,0    c3,12.9,0.1,22.1,3.2,33.4c3.3,11.9,17.7,18,17.7,18l-0.5-5.1l2.2,4.7c0,0,9.4-11.9,6.1-23.8C644.9,528.2,637.6,521.4,633.5,508.8    z"></path>
		<path opacity="0.3" fill="#FFFFFF" enable-background="new    " d="M633.5,508.8c-0.4-1.2-1.6-1.8-2.9-1.5l-4.8,1.2l-4.8,1.2    c-1.2,0.3-2,1.4-1.7,2.6l0,0c3,12.9,0.1,22.1,3.2,33.4c3.3,11.9,17.7,18,17.7,18l-0.5-5.1l2.2,4.7c0,0,9.4-11.9,6.1-23.8    C644.9,528.2,637.6,521.4,633.5,508.8z"></path>
		<path fill="#1A2E35" d="M637.3,538.4c0.4,1.5-0.5,3-2,3.4h-0.1c-1.6,0.4-3.2-0.5-3.7-2c-0.4-1.5,0.5-3,2-3.4h0.1    C635.2,535.9,636.8,536.8,637.3,538.4z"></path>
		<path fill="#1A2E35" d="M639.9,559.3c-0.3,0.1-0.7-0.1-0.8-0.5l-5.4-19.5c-0.1-0.3,0.1-0.7,0.4-0.8c0,0,0,0,0.1,0    c0.3-0.1,0.7,0.1,0.8,0.5l5.5,19.5C640.5,558.8,640.3,559.2,639.9,559.3L639.9,559.3z"></path>
		<path fill="#007CFF" d="M622.2,438.6l-29.5,7.1c-1.7,0.4-3.4-0.5-3.9-2.1l0,0c-0.4-1.6,0.6-3.2,2.2-3.6h0.1l29.5-7.1    c1.7-0.4,3.4,0.5,3.9,2.1l0,0C624.9,436.6,623.9,438.2,622.2,438.6L622.2,438.6z"></path>
		<path fill="#FFB570" d="M536.3,183.1l8.4-6.3l3.8,12.2c0,0-11.6,7.8-14.6-1.4L536.3,183.1z"></path>
		<polygon fill="#FFB570" points="552.3,179 555.4,187.9 548.5,189 544.7,176.9   "></polygon>
		<path fill="#5864FF" d="M452.7,270.1c11.8,46.3,13.7,84.7,12.9,112.2c-2.8,95.7-41.1,193.1-41.1,193.1l0,0L400,564.8    c-7.2-21.6,9.6-165.7,9.6-165.7s-12.4-41.7-62.5-86.4c-10.8-9.6-16.2-20.4-18-31.3c23.2-10,59.6-26.8,82.6-43.7L452.7,270.1z"></path>
		<path fill="#143C75" d="M399.1,563.5l-6.7,14.6c-2.8,5.7-0.5,12.6,5.2,15.5c0.2,0.1,0.4,0.2,0.7,0.3l50.3,20.7    c4.4,1.8,8.7-3.8,5.4-7.2l-0.2-0.2c-5-5.3-29.8-32.9-29.8-32.9L399.1,563.5z"></path>
		<path fill="#5864FF" d="M476.6,394.9c-0.6-18.7-10.6-71.7-16.2-100.4c-0.9,0.4-1.8,0.6-2.8,0.6c-6,0-7.6-6.8-4.8-10.5    c-31.7-16-74.8-59.2-90.9-76c-13.8,15.6-58.3,72.3-12.2,112.5c53.8,47,67.4,90.1,67.4,90.1S400,561.5,408,583.9l26.8,11.4    C434.7,595.2,477.5,421,476.6,394.9z"></path>
		<path opacity="0.34" fill="#143C75" enable-background="new    " d="M426.6,407.5c-0.5-20-32-61.4-69.9-95.7S371,216,371.1,216    c-3.3-3.4-6.3-6.4-8.6-8.8c-14,15.8-59,73.3-12.4,114c54.5,47.6,68.3,91.3,68.3,91.3s-17.3,152.1-9.2,174.9    C409.3,585.6,427.1,427.4,426.6,407.5z"></path>
		<path fill="#F65164" d="M416.3,83.2c-1.2,0.8-2.4,1.6-3.5,2.6c-6.3,5.3-19,19.3-19.4,45.7c-0.5,35.1-50.4,95.6-48,100.9    c-2.4-5.4,73.6,36.8,106.9,36.2c0,0-2.4-91.9,15.8-101c22.1-11-0.9-50.4-15.1-71.2L416.3,83.2z"></path>
		<path fill="#44484C" d="M476.6,42.1c0,0.1,0,0.1,0,0.2V42.1c-8.1,3.6-14.2,0.8-19.2,4.8c-5,4.1-15.1,7.4-15.1,7.4    c-8.2-3.6-9.3,9.1-3.7,18.6c5.6,9.5-3.7,17.3-3.7,17.3l0.3,0.1c-3.1,4.1-20.5,26.4-32.6,16.7c-13.4-10.7-16.8,12.8-32.4,8.1    c-15.6-4.7-21.2,28.8-47.6,12.2c-26.4-16.6-26.1-67.9,1.9-66.7c28,1.3,25.8,2.2,41.1-14.4c15.3-16.6,33.3,1.3,42.6-2.8    s5.9-31.3,31.1-30C464.5,14.7,480.1,22.8,476.6,42.1z"></path>
		<path fill="#FFA683" d="M476.5,42.1c0,0,19.7,48-17.2,46.6l-6.4,7.7L435,90.2c0,0,9.2-7.7,3.7-17.3c-5.5-9.6-4.5-22.2,3.7-18.6    c0,0,10.1-3.3,15.1-7.4C462.5,42.8,468.5,45.6,476.5,42.1z"></path>
		<path fill="#143C75" d="M409.2,585.1l-2.6,16.2c-1.1,6.5,3.3,12.7,9.8,13.8c0.3,0,0.6,0.1,0.9,0.1l57.8,6.6    c5.1,0.6,7.8-6.1,3.5-8.6l-0.2-0.1c-6.7-3.8-40.3-24.3-40.3-24.3L409.2,585.1z"></path>
		<path fill="#101011" d="M476.2,31c-3.5-11.4-17.2-16.6-36.9-17.6c-25.2-1.3-21.8,26-31.1,30c-9.3,4.1-27.4-13.8-42.6,2.8    c-15.2,16.6-13.1,15.7-41.1,14.4c-18.1-0.8-24.6,20.4-19.8,40c6-17.6,27.6-25.4,45.5-23.4c24.8,2.8,15.6-6,19.8-19.9    c4.1-13.9,8.3-13,29-1.4c20.7,11.6,20.7-16.8,35.4-32C450.2,7.7,470.8,25.7,476.2,31z"></path>
		<path fill="#F65164" d="M448.6,100.9c-1.9,0.4,13.2-6.1,18.5,12.7c4.4,15.5,7,61.4,7,61.4l58.7,10l-0.2,13.4    c0,0-67.8,2.9-75.9-1.1C448.7,193.3,413.8,111.2,448.6,100.9z"></path>
		<path fill="#F65164" d="M501.3,144.5l-49.2,23.9c0,0-26.9-31.4-38.6-40.2c-1.3-1-2.8-1.9-4.3-2.6c3.4,7.9,4.1,16.7,2,25    c-0.2,0.6-0.4,1.3-0.6,1.9c0.3,4.8-0.3,9.7-1.7,14.3c-0.1,0.8-0.3,1.6-0.5,2.3c16.6,14.3,38.5,25.3,42.9,24.5    c8.1-1.5,57.2-39.4,57.2-39.4L501.3,144.5z"></path>
	</g>
</g>
</svg>